<?xml version="1.0" standalone="no"?>
<!DOCTYPE svg PUBLIC "-//W3C//DTD SVG 20010904//EN"
 "http://www.w3.org/TR/2001/REC-SVG-20010904/DTD/svg10.dtd">
<svg version="1.0" xmlns="http://www.w3.org/2000/svg"
 width="3324.000000pt" height="3325.000000pt" viewBox="0 0 3324.000000 3325.000000"
 preserveAspectRatio="xMidYMid meet">

<g transform="translate(0.000000,3325.000000) scale(0.100000,-0.100000)"
fill="#000000" stroke="none">
<path d="M18120 28459 c-41 -4 -111 -10 -155 -13 -89 -7 -227 -40 -385 -92
-58 -19 -111 -34 -118 -34 -20 0 -274 -101 -302 -120 -25 -18 -149 -70 -165
-70 -5 0 -87 -43 -182 -96 -196 -109 -183 -107 -309 -48 -44 20 -95 42 -114
49 -19 7 -66 27 -105 45 -72 33 -245 100 -325 126 -104 33 -289 83 -340 90
-19 3 -64 12 -100 21 -139 33 -335 49 -590 48 -186 -1 -414 -67 -562 -163 -14
-9 -48 -30 -75 -46 -26 -16 -50 -32 -53 -36 -3 -3 -47 -32 -98 -64 -72 -45
-133 -98 -271 -235 -200 -199 -244 -258 -368 -494 -34 -65 -60 -159 -88 -317
-22 -128 -25 -164 -20 -300 8 -224 13 -307 24 -364 5 -28 12 -73 16 -101 12
-99 85 -391 132 -525 29 -81 222 -462 248 -487 14 -14 25 -33 25 -43 0 -9 18
-42 40 -73 22 -30 40 -60 40 -65 0 -5 7 -15 16 -22 8 -8 22 -29 29 -48 8 -19
34 -60 57 -92 24 -32 58 -83 76 -113 34 -56 96 -127 111 -127 4 0 14 -12 22
-27 8 -16 35 -54 61 -86 27 -32 48 -61 48 -65 0 -4 23 -31 50 -61 28 -30 50
-58 50 -61 0 -4 15 -18 34 -31 19 -13 41 -35 50 -49 14 -23 28 -41 94 -115 15
-17 45 -53 67 -80 22 -28 53 -61 70 -75 16 -14 59 -54 95 -90 36 -36 81 -79
100 -95 19 -17 52 -49 72 -70 45 -48 115 -114 227 -215 46 -41 102 -94 125
-116 42 -43 158 -148 192 -174 10 -8 73 -60 139 -115 65 -55 140 -116 166
-136 26 -19 71 -56 99 -82 28 -26 59 -47 68 -47 10 0 22 -10 27 -22 6 -12 28
-31 50 -42 22 -11 58 -37 80 -58 22 -21 64 -55 93 -75 29 -21 82 -59 117 -85
35 -27 67 -48 71 -48 17 0 62 -42 58 -54 -5 -14 44 -56 65 -56 5 0 14 -6 18
-14 4 -7 24 -18 44 -25 29 -9 42 -9 74 4 58 25 96 56 90 76 -4 11 10 28 45 55
27 21 50 42 50 46 0 4 15 15 33 24 17 9 57 37 87 63 30 25 60 49 65 54 88 67
143 111 155 125 8 9 40 37 70 62 30 25 57 47 60 50 3 4 23 19 45 35 22 16 74
59 115 95 41 36 88 77 104 91 15 13 61 55 101 92 40 38 86 78 103 90 43 31
203 166 227 192 11 12 65 60 120 107 55 47 148 134 207 194 268 275 358 369
358 376 0 7 41 52 136 148 24 25 44 51 44 57 0 6 11 20 25 31 28 22 105 117
105 130 0 5 27 40 61 78 33 38 67 83 74 99 7 17 23 41 34 55 11 14 24 30 29
35 5 6 24 42 42 80 19 39 53 95 76 125 22 30 49 69 58 85 9 17 36 62 61 100
24 39 44 74 45 78 0 4 17 34 37 65 54 82 57 89 102 181 23 46 41 92 41 102 0
10 4 20 9 24 5 3 17 29 26 58 10 28 24 68 32 87 8 19 19 44 23 55 12 28 77
267 95 345 8 36 24 99 35 140 32 122 24 465 -14 585 -7 22 -13 60 -15 85 -1
25 -6 49 -12 55 -5 5 -9 19 -9 31 0 31 -86 288 -115 344 -13 25 -36 74 -52
110 -30 71 -101 192 -155 267 -46 64 -197 223 -212 223 -6 0 -34 23 -61 50
-27 28 -53 50 -57 50 -4 0 -28 15 -52 34 -24 18 -72 46 -105 62 -34 16 -61 32
-61 36 0 5 -8 8 -18 8 -10 0 -27 7 -38 15 -10 8 -28 15 -39 15 -11 0 -32 6
-47 14 -36 19 -208 74 -266 86 -26 5 -58 12 -72 16 -35 10 -349 12 -440 3z
m-2820 -194 c7 -9 10 -18 7 -22 -8 -7 -37 15 -37 28 0 14 16 11 30 -6z m1850
-1195 c40 -21 47 -100 54 -602 3 -147 8 -273 12 -280 5 -7 9 -20 9 -28 0 -12
23 -16 125 -20 69 -3 168 -2 220 2 121 9 547 10 603 1 89 -14 92 -17 93 -113
0 -47 6 -186 13 -310 27 -530 29 -629 11 -640 -6 -4 -91 -6 -188 -5 -97 1
-224 -2 -282 -7 -58 -5 -209 -10 -337 -11 -127 -1 -234 -5 -238 -8 -10 -11
-10 -54 -2 -249 4 -102 9 -282 10 -400 l2 -215 -25 -11 c-15 -7 -128 -14 -295
-19 -148 -4 -335 -10 -415 -14 -80 -4 -197 -7 -260 -7 l-114 1 -7 35 c-10 47
-19 251 -24 545 -3 132 -8 258 -12 280 l-8 40 -60 3 c-33 2 -136 -2 -230 -8
-243 -16 -512 -22 -570 -13 -46 8 -50 11 -53 38 -2 17 -8 35 -14 42 -5 7 -7
17 -3 22 3 6 1 64 -4 128 -6 65 -13 152 -16 193 -3 41 -8 82 -10 90 -2 8 -6
55 -10 103 -3 48 -8 98 -11 110 -2 12 -9 92 -15 177 -6 85 -12 157 -14 160 -2
3 0 12 5 20 8 13 84 15 502 18 l493 3 18 22 c15 19 17 35 12 112 -8 126 -25
483 -31 652 -5 130 -4 142 13 151 11 6 215 10 512 11 272 1 497 4 500 6 7 8
21 6 41 -5z m-2800 -2082 c0 -17 -3 -18 -15 -8 -8 7 -15 19 -15 26 0 8 6 11
15 8 8 -4 15 -15 15 -26z"/>
<path d="M17168 21483 c7 -3 16 -2 19 1 4 3 -2 6 -13 5 -11 0 -14 -3 -6 -6z"/>
<path d="M16310 21470 c14 -6 70 -13 125 -15 94 -3 96 -3 25 4 -41 4 -97 11
-125 15 -40 5 -45 4 -25 -4z"/>
<path d="M16948 21453 c12 -2 32 -2 45 0 12 2 2 4 -23 4 -25 0 -35 -2 -22 -4z"/>
<path d="M16643 21443 c48 -2 126 -2 175 0 48 1 8 3 -88 3 -96 0 -136 -2 -87
-3z"/>
<path d="M17180 20509 c-30 -5 -59 -11 -65 -14 -17 -8 109 7 130 16 25 10 6 9
-65 -2z"/>
<path d="M16965 20471 c-20 -4 -25 -8 -15 -12 8 -3 35 0 60 7 37 10 40 12 15
12 -16 0 -43 -3 -60 -7z"/>
<path d="M16368 20463 c6 -2 18 -2 25 0 6 3 1 5 -13 5 -14 0 -19 -2 -12 -5z"/>
<path d="M16428 20453 c6 -2 18 -2 25 0 6 3 1 5 -13 5 -14 0 -19 -2 -12 -5z"/>
<path d="M16898 20453 c6 -2 18 -2 25 0 6 3 1 5 -13 5 -14 0 -19 -2 -12 -5z"/>
<path d="M16508 20443 c12 -2 30 -2 40 0 9 3 -1 5 -23 4 -22 0 -30 -2 -17 -4z"/>
<path d="M16747 20443 c18 -2 50 -2 70 0 21 2 7 4 -32 4 -38 0 -55 -2 -38 -4z"/>
<path d="M17100 19489 c-63 -10 -119 -18 -124 -18 -5 -1 -7 -3 -4 -6 7 -8 242
26 253 36 6 6 6 9 0 8 -6 -1 -62 -10 -125 -20z"/>
<path d="M16880 19460 c-36 -4 -101 -9 -145 -11 -51 -1 -66 -4 -40 -7 59 -6
265 9 265 19 0 5 -3 8 -7 7 -5 0 -37 -4 -73 -8z"/>
<path d="M16598 19443 c7 -3 16 -2 19 1 4 3 -2 6 -13 5 -11 0 -14 -3 -6 -6z"/>
<path d="M17150 18720 c-20 -6 -21 -8 -5 -8 11 0 34 4 50 8 27 7 27 8 5 8 -14
0 -36 -4 -50 -8z"/>
<path d="M16368 18693 c7 -3 16 -2 19 1 4 3 -2 6 -13 5 -11 0 -14 -3 -6 -6z"/>
<path d="M16985 18690 c-27 -7 -27 -8 -5 -8 14 0 36 4 50 8 20 6 21 8 5 8 -11
0 -33 -4 -50 -8z"/>
<path d="M17053 17913 c9 -2 23 -2 30 0 6 3 -1 5 -18 5 -16 0 -22 -2 -12 -5z"/>
<path d="M22198 16603 c7 -3 16 -2 19 1 4 3 -2 6 -13 5 -11 0 -14 -3 -6 -6z"/>
<path d="M22135 16585 c-25 -12 -26 -14 -5 -9 28 7 60 23 45 23 -5 0 -23 -6
-40 -14z"/>
<path d="M21916 16542 c-3 -5 8 -6 25 -4 16 2 29 6 29 8 0 8 -49 4 -54 -4z"/>
<path d="M15298 16383 c6 -2 18 -2 25 0 6 3 1 5 -13 5 -14 0 -19 -2 -12 -5z"/>
<path d="M17925 16380 c11 -5 29 -9 40 -9 l20 0 -20 9 c-11 5 -29 9 -40 9
l-20 0 20 -9z"/>
<path d="M15248 16373 c6 -2 18 -2 25 0 6 3 1 5 -13 5 -14 0 -19 -2 -12 -5z"/>
<path d="M18263 16333 c9 -2 23 -2 30 0 6 3 -1 5 -18 5 -16 0 -22 -2 -12 -5z"/>
<path d="M18358 16323 c6 -2 18 -2 25 0 6 3 1 5 -13 5 -14 0 -19 -2 -12 -5z"/>
<path d="M18533 16303 c9 -2 23 -2 30 0 6 3 -1 5 -18 5 -16 0 -22 -2 -12 -5z"/>
<path d="M14580 16220 c-8 -5 -10 -10 -5 -10 6 0 17 5 25 10 8 5 11 10 5 10
-5 0 -17 -5 -25 -10z"/>
<path d="M19958 15833 c7 -3 16 -2 19 1 4 3 -2 6 -13 5 -11 0 -14 -3 -6 -6z"/>
<path d="M13230 15708 c-14 -6 -20 -12 -13 -15 7 -2 23 3 35 11 25 18 15 20
-22 4z"/>
<path d="M13178 15693 c7 -3 16 -2 19 1 4 3 -2 6 -13 5 -11 0 -14 -3 -6 -6z"/>
<path d="M23400 15611 c-140 -46 -213 -141 -213 -276 0 -42 7 -85 16 -108 18
-42 71 -114 100 -135 42 -31 67 -70 78 -118 7 -29 9 -59 6 -67 -3 -9 -53 -31
-119 -51 -183 -58 -280 -105 -396 -192 -171 -129 -177 -133 -183 -134 -3 0
-26 17 -50 38 -24 21 -52 42 -63 45 -16 7 -18 13 -10 55 15 83 9 173 -15 227
-27 62 -43 79 -111 124 -53 35 -58 36 -145 36 -98 -1 -114 -6 -186 -66 -65
-54 -99 -128 -99 -218 0 -83 14 -121 70 -187 66 -77 140 -109 228 -100 54 6
59 5 97 -26 91 -76 111 -97 96 -107 -11 -7 -11 -9 0 -13 10 -3 -6 -27 -46 -74
-133 -152 -204 -254 -245 -349 -18 -43 -49 -161 -76 -291 l-16 -82 -47 -5
c-25 -4 -87 -9 -136 -13 l-91 -6 -27 40 c-54 83 -136 125 -240 124 -232 -2
-365 -272 -227 -459 58 -79 165 -123 264 -111 50 7 64 5 91 -12 40 -25 45 -25
45 -2 0 24 26 76 45 92 8 7 15 18 15 24 1 25 42 60 73 62 18 1 69 5 115 9 53
4 82 3 82 -3 0 -6 -6 -13 -12 -16 -7 -3 -3 -3 8 -1 18 5 22 0 28 -32 3 -21 6
-79 6 -129 0 -169 29 -288 122 -492 39 -87 49 -118 41 -131 -5 -9 -52 -39
-105 -68 l-94 -51 -55 19 c-120 41 -238 13 -316 -76 -86 -96 -100 -210 -42
-326 34 -68 120 -141 180 -152 24 -4 24 -4 1 -6 -13 0 -21 -5 -17 -11 3 -5 12
-7 20 -3 9 3 15 -1 15 -10 0 -15 28 -27 68 -27 12 0 22 5 22 10 0 6 -7 10 -15
10 -35 0 -11 21 42 36 65 19 151 71 173 106 20 31 60 128 60 145 0 27 32 64
51 58 13 -4 27 7 53 41 20 26 54 56 75 67 l39 20 88 -71 c118 -95 256 -192
273 -192 7 0 11 -6 8 -14 -4 -10 -1 -13 7 -10 8 3 17 1 21 -5 3 -6 14 -11 23
-11 10 0 64 -22 120 -50 56 -27 106 -50 109 -50 4 0 26 -9 50 -21 27 -13 40
-25 36 -32 -4 -7 -8 -28 -9 -47 -2 -56 -48 -210 -62 -210 -24 0 -99 -41 -136
-74 -51 -47 -79 -116 -80 -196 -1 -79 20 -136 76 -202 60 -72 105 -92 203 -92
105 1 151 8 148 22 -2 7 7 12 20 12 28 1 83 73 108 146 36 102 19 209 -46 286
-21 25 -24 36 -18 71 3 23 10 43 15 45 4 2 8 20 8 40 0 21 6 57 14 82 l13 45
79 3 c66 2 83 -1 106 -18 20 -15 28 -17 28 -7 0 7 8 14 18 14 55 -1 83 4 77
13 -3 6 4 10 17 10 18 0 20 -2 8 -10 -9 -6 -10 -10 -3 -10 6 0 14 4 17 9 3 4
28 9 55 9 27 1 69 7 93 12 24 6 59 13 78 14 41 4 91 16 105 26 6 3 24 7 40 8
17 1 44 9 62 17 39 19 55 13 76 -28 9 -18 32 -60 51 -94 27 -50 31 -65 21 -73
-7 -6 -25 -36 -40 -67 -25 -50 -27 -63 -22 -132 6 -91 35 -153 99 -211 45 -41
115 -72 161 -71 17 1 26 -3 22 -9 -4 -6 9 -10 34 -10 29 0 44 6 55 21 8 12 19
18 25 14 6 -3 11 -1 11 5 0 6 13 15 28 21 31 11 95 90 119 147 22 53 20 158
-4 214 -43 96 -149 177 -233 178 -22 0 -30 3 -22 8 9 6 3 29 -29 96 -28 61
-39 95 -35 112 4 13 10 24 15 24 4 0 19 9 32 21 13 12 48 37 77 57 63 41 88
61 150 120 25 23 50 42 54 42 4 0 7 3 5 8 -1 4 16 29 38 55 22 26 49 64 60 85
42 77 95 151 115 162 11 6 18 15 15 21 -12 18 18 8 83 -28 37 -21 76 -42 86
-48 12 -6 27 -35 39 -73 34 -107 131 -195 231 -208 56 -8 148 11 191 38 28 19
77 83 105 137 6 13 13 61 13 108 2 70 -1 87 -15 97 -10 7 -18 18 -18 24 0 6
-12 23 -27 39 -16 16 -32 37 -38 46 -5 10 -37 27 -69 39 -83 29 -191 21 -248
-18 l-39 -28 -102 49 c-103 50 -131 70 -121 87 6 9 20 66 49 198 43 193 59
437 35 520 -17 57 -13 100 8 100 11 0 53 9 96 20 85 21 97 20 116 -16 48 -89
209 -123 329 -68 104 47 172 165 156 271 -20 140 -120 236 -261 250 -95 10
-179 -37 -246 -136 -17 -25 -32 -47 -34 -49 -1 -2 -35 -12 -75 -22 -41 -10
-84 -22 -95 -25 -13 -4 -25 -2 -30 7 -11 16 -54 121 -54 130 0 8 -64 143 -89
185 -45 79 -253 309 -339 376 l-22 17 39 63 c74 115 84 125 143 130 80 7 109
17 150 50 31 25 91 101 93 117 0 3 4 11 8 18 5 7 8 46 8 87 -1 120 -45 193
-151 248 -62 32 -154 37 -216 11 -49 -20 -124 -81 -124 -100 0 -8 -4 -14 -9
-14 -13 0 -39 -71 -47 -128 -5 -37 -2 -64 11 -99 l17 -48 -51 -85 c-75 -123
-65 -119 -157 -65 -130 77 -263 133 -354 149 -19 3 -46 9 -60 12 -14 4 -89 6
-166 6 l-141 -1 -13 27 c-17 37 -26 142 -12 142 6 0 30 39 54 88 39 79 43 94
43 162 0 55 -6 87 -21 120 -26 55 -96 128 -142 147 -42 17 -157 26 -192 14z
m-680 -2391 c0 -5 -4 -10 -10 -10 -5 0 -10 5 -10 10 0 6 5 10 10 10 6 0 10 -4
10 -10z m2150 -340 c0 -5 -4 -10 -10 -10 -5 0 -10 5 -10 10 0 6 5 10 10 10 6
0 10 -4 10 -10z m183 -317 c-7 -2 -19 -2 -25 0 -7 3 -2 5 12 5 14 0 19 -2 13
-5z m-33 -53 c0 -5 -4 -10 -10 -10 -5 0 -10 5 -10 10 0 6 5 10 10 10 6 0 10
-4 10 -10z m-140 -200 c0 -5 -5 -10 -11 -10 -5 0 -7 5 -4 10 3 6 8 10 11 10 2
0 4 -4 4 -10z m-2980 -508 c0 -12 -3 -12 -15 -2 -8 7 -15 13 -15 15 0 1 7 2
15 2 8 0 15 -7 15 -15z m1267 -238 c-3 -3 -12 -4 -19 -1 -8 3 -5 6 6 6 11 1
17 -2 13 -5z"/>
<path d="M22490 15570 c20 -13 33 -13 25 0 -3 6 -14 10 -23 10 -15 0 -15 -2
-2 -10z"/>
<path d="M9410 15333 c-100 -37 -134 -64 -178 -144 -36 -65 -46 -126 -32 -199
9 -48 52 -129 73 -138 12 -6 8 -73 -9 -133 -16 -56 -17 -57 -43 -47 -63 24
-231 49 -331 49 -111 0 -154 -4 -316 -27 -56 -8 -115 -11 -131 -8 -27 5 -31
12 -45 70 -15 63 -15 66 8 122 47 113 23 239 -62 326 -54 55 -105 76 -190 76
-146 0 -258 -88 -283 -224 -31 -168 96 -332 259 -336 19 0 31 -11 53 -50 40
-74 37 -101 -17 -127 -24 -12 -59 -35 -77 -51 -19 -16 -59 -47 -89 -69 -150
-110 -226 -202 -324 -388 -67 -127 -60 -123 -142 -80 -86 46 -82 43 -89 88
-33 203 -250 308 -423 205 -30 -18 -68 -51 -84 -72 -32 -45 -58 -122 -58 -176
0 -38 26 -124 44 -149 32 -41 86 -86 126 -104 64 -29 179 -28 237 1 23 12 49
22 56 22 21 0 143 -58 156 -74 8 -10 2 -42 -23 -122 -58 -183 -65 -225 -70
-436 -3 -165 -7 -202 -22 -227 -10 -16 -21 -28 -25 -25 -4 2 -34 -3 -66 -12
-111 -32 -130 -31 -171 9 -74 72 -185 101 -276 72 -102 -32 -175 -116 -196
-223 -11 -56 -11 -68 10 -131 50 -158 209 -238 365 -184 47 16 127 85 165 142
17 26 114 50 214 54 59 2 60 2 66 -28 4 -16 26 -68 49 -115 82 -163 232 -346
330 -401 40 -22 91 -91 91 -122 0 -10 -20 -42 -45 -70 -25 -29 -43 -57 -41
-63 3 -7 -29 -10 -93 -10 -79 1 -104 -3 -141 -21 -78 -37 -140 -116 -155 -195
-16 -83 43 -226 117 -281 39 -29 126 -57 179 -57 94 0 202 69 250 160 20 38
24 60 24 136 l0 92 53 52 54 53 78 -38 c42 -21 83 -35 89 -31 6 4 16 4 22 0 8
-4 7 -9 -2 -15 -9 -6 4 -8 36 -8 61 2 117 -4 170 -18 22 -6 93 -17 158 -23 64
-7 117 -17 117 -22 0 -12 31 -43 58 -57 16 -9 22 -21 22 -45 l0 -33 79 5 c70
4 85 1 141 -24 60 -27 62 -27 73 -8 6 10 12 21 12 24 0 11 43 60 52 60 5 0 15
9 23 20 8 11 20 20 27 20 7 0 13 5 13 10 0 6 14 10 31 10 24 0 30 4 27 18 -5
23 34 42 87 42 35 0 45 4 50 20 3 11 18 23 33 27 15 3 33 12 40 20 15 15 32
17 32 5 0 -5 -18 -17 -40 -28 -41 -20 -46 -29 -30 -54 8 -12 10 -10 11 10 l1
25 11 -27 10 -27 66 58 c36 31 86 70 111 86 25 15 57 36 71 46 25 17 120 49
145 49 7 0 37 -25 67 -55 l54 -55 -4 -93 c-5 -89 -4 -94 27 -152 38 -70 50
-83 119 -126 41 -24 50 -35 46 -50 -8 -23 3 -24 33 -4 12 9 48 17 79 19 158 9
269 130 267 291 0 55 -6 81 -27 121 -27 53 -87 112 -142 140 -65 34 -224 26
-256 -12 -6 -8 -16 -14 -22 -14 -5 0 -2 9 8 20 18 20 18 21 -6 48 -13 15 -30
32 -37 38 -10 9 -8 20 10 53 12 22 26 41 31 41 5 0 7 7 4 15 -4 8 -2 17 3 20
6 4 10 20 10 36 0 17 6 32 15 35 8 4 15 14 15 24 0 10 6 20 14 23 9 4 12 14 9
27 -4 13 2 32 16 50 11 16 21 33 21 39 0 5 3 11 8 13 11 5 72 133 72 151 0 9
5 19 10 22 6 3 10 15 10 25 0 11 11 40 25 64 14 25 28 67 32 93 3 26 10 53 15
60 5 6 8 20 6 30 -3 16 4 18 52 17 146 -2 137 1 159 -49 29 -65 84 -119 153
-150 53 -24 70 -27 132 -23 43 3 85 12 106 24 53 29 100 64 100 75 0 5 9 19
19 30 42 45 55 197 23 259 -30 57 -46 85 -57 92 -5 4 -1 16 10 30 l20 23 -21
-17 c-27 -23 -30 -23 -66 7 -90 76 -256 66 -349 -21 -19 -19 -33 -23 -60 -19
-19 2 -61 7 -94 11 -33 4 -63 12 -68 18 -4 6 -4 59 -1 117 9 160 -29 317 -121
501 -33 65 -50 110 -44 114 6 3 7 19 4 36 -6 26 -2 35 35 69 23 21 43 39 44
39 2 0 18 -8 37 -17 24 -13 57 -18 109 -18 150 1 254 85 290 234 14 58 5 144
-16 162 -8 6 -14 19 -14 28 0 27 -72 98 -125 123 -93 43 -238 26 -323 -38 -56
-43 -105 -169 -94 -242 3 -25 -1 -36 -24 -56 -16 -13 -42 -36 -59 -50 -16 -14
-34 -24 -40 -23 -5 2 -26 27 -45 55 -38 54 -191 193 -277 250 -29 19 -53 37
-53 39 0 3 18 21 40 40 22 20 40 40 40 45 0 7 -33 -17 -72 -54 -24 -24 -29
-23 -90 13 -29 18 -102 56 -161 86 -96 47 -107 56 -102 75 10 29 46 88 54 88
4 0 15 14 24 30 10 17 25 30 33 30 8 0 14 4 14 9 0 6 22 31 49 58 76 74 96
121 96 223 0 68 -4 94 -23 130 -36 72 -84 119 -146 141 -53 18 -152 25 -186
12z m457 -3489 c-3 -3 -12 -4 -19 -1 -8 3 -5 6 6 6 11 1 17 -2 13 -5z m309
-19 c-8 -8 -18 -15 -22 -15 -3 0 -1 7 6 15 7 8 17 15 22 15 5 0 3 -7 -6 -15z
m-2256 -59 c0 -2 -9 -2 -20 1 -11 3 -20 9 -20 15 0 5 9 4 20 -2 11 -6 20 -12
20 -14z m1770 -21 c0 -7 -61 -37 -67 -32 -2 3 5 8 16 12 12 3 21 11 21 16 0 5
7 9 15 9 8 0 15 -2 15 -5z m-341 -159 c-12 -10 -60 -16 -54 -6 3 5 18 10 32
10 15 0 24 -2 22 -4z m-94 -16 c-3 -5 -18 -10 -33 -10 -21 0 -24 2 -12 10 20
13 53 13 45 0z"/>
<path d="M10560 15020 c-9 -6 -10 -10 -3 -10 6 0 15 5 18 10 8 12 4 12 -15 0z"/>
<path d="M10789 14683 c-13 -16 -12 -17 4 -4 16 13 21 21 13 21 -2 0 -10 -8
-17 -17z"/>
<path d="M22248 14453 c7 -3 16 -2 19 1 4 3 -2 6 -13 5 -11 0 -14 -3 -6 -6z"/>
<path d="M21260 13960 c55 -15 179 -28 380 -40 102 -6 199 -13 215 -15 l30 -5
-30 10 c-16 5 -100 14 -185 20 -146 9 -301 23 -401 34 -42 5 -43 5 -9 -4z"/>
<path d="M12008 13533 c7 -3 16 -2 19 1 4 3 -2 6 -13 5 -11 0 -14 -3 -6 -6z"/>
<path d="M11828 13493 c7 -3 16 -2 19 1 4 3 -2 6 -13 5 -11 0 -14 -3 -6 -6z"/>
<path d="M11579 13383 c-13 -16 -12 -17 4 -4 9 7 17 15 17 17 0 8 -8 3 -21
-13z"/>
<path d="M11390 13260 c-9 -6 -10 -10 -3 -10 6 0 15 5 18 10 8 12 4 12 -15 0z"/>
<path d="M19610 12880 c0 -5 5 -10 10 -10 6 0 10 5 10 10 0 6 -4 10 -10 10 -5
0 -10 -4 -10 -10z"/>
<path d="M8498 11613 c7 -3 16 -2 19 1 4 3 -2 6 -13 5 -11 0 -14 -3 -6 -6z"/>
<path d="M9428 11613 c6 -2 18 -2 25 0 6 3 1 5 -13 5 -14 0 -19 -2 -12 -5z"/>
<path d="M8753 11573 c9 -2 23 -2 30 0 6 3 -1 5 -18 5 -16 0 -22 -2 -12 -5z"/>
<path d="M8929 11440 c-58 -10 -95 -29 -140 -73 -59 -57 -82 -118 -83 -217 -1
-76 2 -90 26 -132 78 -132 246 -186 381 -123 67 32 110 78 145 153 21 46 24
65 20 127 -4 60 -11 82 -38 126 -18 30 -38 57 -44 61 -6 3 -23 18 -38 31 -45
41 -141 61 -229 47z"/>
<path d="M19550 11192 c-14 -2 -29 -8 -34 -13 -6 -5 -19 -9 -29 -9 -35 0 -114
-77 -146 -142 -62 -124 -23 -284 86 -348 21 -12 42 -28 46 -36 4 -8 23 -14 42
-14 40 0 54 -15 22 -24 l-22 -7 22 -9 c23 -9 39 -49 30 -73 -3 -7 -24 -18 -48
-24 -166 -42 -284 -88 -415 -159 -47 -25 -91 -55 -97 -65 -7 -11 -16 -19 -22
-19 -26 0 -188 -137 -180 -151 3 -4 -4 -5 -15 -2 -11 3 -30 19 -42 35 -18 26
-20 35 -10 62 14 38 1 148 -22 197 -9 19 -37 55 -62 82 -76 78 -186 99 -298
56 -244 -91 -248 -426 -8 -531 67 -29 180 -22 247 15 50 28 64 26 85 -13 9
-16 -14 -78 -35 -92 -6 -5 -6 -8 0 -8 7 0 7 -3 0 -8 -26 -19 -71 -91 -105
-170 -77 -178 -160 -460 -160 -543 0 -25 -3 -27 -57 -34 -55 -7 -58 -6 -80 22
-13 15 -35 42 -49 59 -29 36 -88 67 -155 83 -36 8 -59 7 -105 -5 -186 -48
-278 -230 -201 -396 57 -122 130 -169 262 -171 130 -2 205 47 268 174 24 47
38 65 55 67 36 5 49 -13 56 -81 17 -158 133 -512 232 -709 19 -37 34 -71 34
-75 0 -5 -16 -25 -35 -45 l-35 -38 -47 28 c-43 24 -58 27 -139 27 -83 0 -94
-2 -134 -29 -100 -66 -141 -137 -141 -245 -1 -157 106 -268 266 -279 60 -4 78
0 125 21 63 29 94 59 141 137 31 50 34 62 33 128 -1 71 0 75 35 110 33 34 36
35 39 16 2 -16 8 -20 23 -17 13 4 38 -12 85 -56 118 -111 258 -192 409 -237
132 -40 185 -55 207 -59 31 -6 38 -23 36 -83 l-1 -53 -63 -30 c-142 -67 -201
-220 -144 -372 24 -63 78 -118 146 -149 55 -24 147 -30 174 -11 11 8 24 11 30
8 28 -17 123 64 166 142 35 61 36 68 32 136 -3 46 -13 87 -26 113 -24 48 -102
120 -150 141 -21 9 -30 18 -25 25 4 7 10 28 13 48 5 30 9 35 30 32 56 -7 337
-2 413 8 124 16 226 40 362 87 55 19 107 37 116 40 15 4 51 -30 62 -60 3 -9
13 -7 37 6 47 25 48 15 1 -16 -29 -19 -48 -44 -71 -94 -29 -61 -32 -75 -27
-133 9 -120 62 -201 173 -262 39 -22 147 -25 209 -7 100 29 181 135 191 250
10 108 -45 214 -144 278 -42 26 -60 32 -118 34 -38 1 -87 -1 -109 -5 -22 -4
-32 -5 -22 -2 13 4 16 11 12 22 -33 78 -51 52 186 286 138 136 244 251 293
317 115 154 102 142 134 125 60 -32 72 -52 72 -122 0 -76 20 -123 83 -191 60
-65 133 -96 217 -91 279 16 378 382 145 534 -104 67 -221 67 -321 -2 l-52 -35
-48 31 c-26 16 -60 30 -74 30 l-26 0 33 228 c40 267 39 359 -3 527 -23 94 -25
110 -13 132 8 14 20 28 29 31 8 3 22 11 30 18 8 7 27 15 42 19 23 6 33 1 60
-28 44 -45 86 -73 126 -82 17 -3 32 -11 32 -16 0 -6 -10 -8 -22 -4 -22 6 -22
5 -3 -6 26 -17 95 -23 95 -10 0 6 -15 12 -32 12 -19 1 -7 5 29 10 78 10 117
30 170 86 75 80 106 185 83 277 -36 143 -121 214 -269 223 -72 4 -80 3 -136
-29 -73 -41 -127 -109 -150 -190 -9 -32 -14 -62 -11 -66 9 -15 -9 -31 -62 -51
-53 -21 -94 -27 -90 -13 4 13 -21 80 -56 152 -73 147 -194 283 -424 475 -40
33 -72 66 -72 75 0 18 51 100 62 100 4 0 18 -11 32 -25 17 -17 26 -20 29 -11
6 14 77 10 77 -5 0 -5 5 -9 11 -9 6 0 8 7 5 16 -4 12 -2 15 9 11 8 -4 17 -2
20 3 3 4 26 18 52 31 104 50 163 144 163 257 0 87 -34 166 -71 167 -16 0 -25
7 -27 20 -2 11 -22 37 -44 57 -37 35 -50 40 -137 52 -33 5 -114 -18 -156 -44
-51 -32 -102 -96 -121 -153 -22 -65 -15 -166 15 -225 25 -49 20 -88 -20 -143
-21 -30 -24 -31 -72 -25 -27 4 -61 15 -76 26 -44 32 -183 66 -406 101 -95 14
-358 23 -351 11 4 -7 -5 -6 -23 1 -25 9 -29 15 -26 40 2 16 13 39 23 51 11 11
33 35 49 52 35 39 77 119 69 132 -3 6 -1 12 6 14 7 3 14 32 16 75 5 78 -13
131 -64 199 -49 63 -177 111 -264 96z m85 -572 c-11 -5 -27 -9 -35 -9 -9 0 -8
4 5 9 11 5 27 9 35 9 9 0 8 -4 -5 -9z m-205 -1190 c0 -5 -5 -10 -11 -10 -5 0
-7 5 -4 10 3 6 8 10 11 10 2 0 4 -4 4 -10z"/>
<path d="M23160 10960 c0 -13 11 -13 30 0 12 8 11 10 -7 10 -13 0 -23 -4 -23
-10z"/>
<path d="M21150 10880 c0 -5 5 -10 11 -10 5 0 7 5 4 10 -3 6 -8 10 -11 10 -2
0 -4 -4 -4 -10z"/>
<path d="M23945 9717 c-159 -76 -222 -254 -142 -399 12 -22 26 -48 31 -57 11
-20 91 -81 106 -81 6 0 21 -5 33 -12 12 -7 29 -12 37 -13 33 -1 100 -175 67
-175 -26 0 -235 -109 -322 -169 -175 -118 -243 -183 -326 -311 -18 -28 -37
-50 -42 -50 -6 0 -46 15 -90 32 -85 35 -97 49 -97 114 0 62 -61 155 -129 198
-118 74 -299 41 -382 -71 -61 -81 -74 -181 -38 -276 30 -78 70 -122 146 -158
65 -32 78 -35 146 -38 23 0 36 -5 32 -11 -3 -5 1 -10 9 -10 10 0 13 6 10 15
-6 14 16 21 54 16 6 -1 12 5 12 14 0 8 5 15 12 15 6 0 21 9 33 20 18 17 25 18
53 8 18 -7 32 -16 32 -20 0 -4 7 -8 15 -8 31 0 27 -48 -14 -173 -42 -131 -55
-193 -92 -467 -12 -91 -29 -175 -36 -187 -18 -26 -33 -32 -102 -37 -46 -3 -54
-1 -69 21 -69 101 -158 160 -257 170 -47 5 -60 1 -124 -32 -121 -64 -169 -153
-157 -293 9 -115 56 -186 153 -228 34 -15 73 -24 107 -24 55 0 140 24 167 46
8 8 20 14 25 14 10 0 64 64 64 77 1 4 10 19 21 32 15 19 32 25 74 29 30 2 65
2 78 -2 27 -6 51 -53 67 -131 15 -68 96 -231 168 -340 33 -49 102 -133 154
-186 52 -53 97 -103 101 -111 3 -10 -21 -44 -69 -96 -41 -44 -74 -85 -74 -91
0 -8 -6 -9 -19 -2 -57 31 -163 22 -241 -21 -93 -50 -106 -64 -133 -140 -14
-40 -29 -101 -32 -135 -6 -61 -6 -62 32 -104 112 -126 161 -153 268 -153 136
1 242 84 274 216 11 48 5 128 -9 128 -4 0 -8 10 -7 23 0 12 -3 30 -8 40 -5 12
-3 16 6 12 8 -3 36 16 64 42 28 27 65 61 82 76 l33 29 92 -37 c51 -20 122 -49
158 -65 77 -33 130 -50 153 -50 9 0 17 -5 17 -11 0 -6 7 -9 15 -5 8 3 28 1 43
-5 27 -11 113 -29 142 -30 8 -1 33 -6 55 -12 22 -5 50 -9 61 -9 41 3 46 -17
38 -153 l-7 -126 -38 -19 c-48 -25 -107 -85 -125 -127 -46 -107 -37 -198 26
-283 70 -94 139 -125 257 -118 68 5 77 8 130 49 78 61 115 129 121 225 4 66 2
79 -23 128 -29 57 -68 98 -110 118 -21 10 -25 18 -25 57 1 76 19 194 31 202
12 7 60 14 179 25 83 7 117 15 215 53 44 17 86 31 93 31 6 0 12 5 12 10 0 6 7
10 15 10 8 0 15 4 15 9 0 8 25 22 174 98 l68 36 29 -31 c16 -17 29 -35 29 -41
0 -5 4 -11 8 -13 16 -6 82 -101 82 -117 0 -9 -7 -29 -15 -45 -21 -41 -19 -135
5 -200 23 -61 88 -128 148 -153 46 -19 153 -22 209 -5 111 33 186 140 186 266
1 85 -16 128 -73 190 -57 61 -118 89 -200 89 -36 0 -76 -3 -90 -7 -18 -5 -21
-4 -11 2 12 8 8 20 -21 64 -19 29 -47 75 -62 102 l-27 49 27 21 c71 55 176
151 207 189 55 67 113 184 142 287 31 107 59 168 81 177 8 3 33 0 57 -6 23 -7
53 -14 67 -17 51 -10 59 -16 71 -52 6 -20 29 -60 51 -88 65 -87 181 -122 293
-89 204 59 271 305 125 455 -62 64 -101 82 -186 88 -61 4 -80 1 -125 -20 -53
-25 -72 -40 -108 -88 -14 -19 -22 -22 -32 -13 -8 6 -40 17 -72 24 -89 19 -88
17 -76 144 12 129 4 343 -17 434 -8 35 -34 115 -59 177 -25 62 -45 124 -45
136 0 22 32 48 85 71 11 4 23 15 28 23 4 8 15 14 22 14 8 0 15 4 15 9 0 5 28
-3 63 -17 111 -45 240 -28 315 41 45 41 82 122 89 190 5 56 2 71 -22 126 -71
158 -230 218 -380 144 -108 -54 -157 -136 -159 -268 -1 -16 -6 -37 -11 -45
-15 -24 -137 -102 -145 -93 -4 4 -29 39 -56 78 -88 125 -273 303 -364 350 -19
10 -64 38 -99 61 -35 24 -66 44 -70 44 -3 0 -12 9 -18 19 -10 15 -7 34 13 99
13 44 32 86 41 93 11 10 14 10 9 2 -4 -7 -2 -13 3 -13 6 0 11 3 11 8 0 4 12
13 28 19 36 16 115 90 147 137 49 73 55 184 13 272 -20 43 -29 54 -88 104
-129 109 -348 55 -425 -106 -39 -81 -29 -209 20 -283 31 -45 31 -56 -1 -147
-21 -57 -31 -73 -43 -70 -201 58 -223 61 -386 59 -152 -2 -256 -17 -380 -57
-18 -6 -22 1 -38 66 -22 94 -22 92 14 168 41 84 46 189 13 261 -28 59 -76 114
-130 145 -66 39 -181 44 -249 11z"/>
<path d="M9053 9660 c-148 -30 -231 -126 -241 -276 -4 -61 -1 -80 20 -125 26
-58 69 -109 106 -128 19 -10 22 -20 22 -70 0 -32 -3 -93 -7 -135 -6 -75 -7
-78 -37 -91 -17 -7 -67 -18 -111 -25 -186 -28 -323 -70 -500 -154 -127 -60
-145 -65 -145 -39 0 9 -3 14 -6 10 -7 -7 -70 82 -83 116 -5 14 -3 33 5 52 7
17 13 62 13 100 1 142 -92 260 -227 290 -106 23 -225 -31 -297 -133 -37 -52
-40 -63 -43 -133 -4 -68 -1 -82 26 -135 32 -63 111 -140 166 -161 17 -7 56
-12 87 -12 52 -1 58 -3 86 -38 32 -41 47 -67 63 -107 9 -24 4 -32 -48 -84
-171 -175 -257 -293 -326 -452 -16 -36 -37 -84 -47 -107 -11 -23 -19 -47 -19
-53 0 -6 -8 -9 -17 -6 -10 2 -60 15 -111 27 l-93 22 -31 59 c-35 67 -108 137
-150 145 -16 3 -31 10 -34 14 -9 15 -97 10 -150 -8 -97 -32 -152 -86 -185
-180 -45 -127 7 -259 129 -331 43 -24 56 -27 144 -27 82 0 101 3 125 21 15 11
36 23 46 27 9 3 17 11 17 17 0 23 47 29 111 13 35 -9 70 -20 77 -26 9 -7 12
-55 12 -176 1 -151 14 -285 39 -396 5 -22 14 -63 19 -91 6 -28 20 -75 31 -105
31 -81 28 -92 -35 -143 -31 -26 -60 -46 -64 -46 -4 0 -30 11 -57 25 -77 40
-179 36 -258 -10 -198 -115 -191 -377 14 -482 50 -26 75 -33 121 -33 147 0
260 94 278 230 5 33 11 61 13 63 69 49 120 78 132 75 8 -1 39 -35 68 -74 92
-123 190 -224 289 -299 52 -39 106 -78 120 -85 63 -32 149 -97 154 -114 6 -23
0 -64 -20 -133 -14 -48 -19 -53 -62 -70 -26 -9 -68 -38 -93 -63 -109 -109
-105 -273 9 -393 54 -57 105 -79 189 -85 65 -4 78 -2 129 24 119 60 180 193
149 326 -7 31 -18 63 -23 70 -6 7 -28 32 -48 56 l-37 43 16 52 c29 92 30 93
128 68 209 -52 441 -60 600 -20 48 12 93 20 100 17 25 -10 85 -238 68 -255
-26 -26 -58 -108 -64 -164 -12 -114 41 -209 155 -277 38 -23 57 -27 120 -27
159 0 268 95 291 254 17 122 -76 259 -202 297 -32 10 -56 21 -54 25 3 3 -8 51
-25 105 -16 53 -27 101 -24 106 3 4 31 20 62 34 177 80 265 133 390 235 76 62
160 143 206 202 47 58 59 58 181 9 l89 -37 1 -47 c5 -167 198 -293 371 -243
197 57 270 305 131 447 -61 62 -118 87 -204 89 -57 1 -82 -4 -127 -24 -30 -14
-58 -22 -61 -17 -3 5 -38 19 -78 32 -40 13 -73 26 -75 30 -2 5 -10 8 -18 8
-23 0 -16 36 20 97 69 117 111 273 145 533 14 100 27 170 35 177 3 4 42 8 87
11 l81 5 56 -55 c69 -65 117 -89 197 -95 115 -9 240 63 283 165 61 144 19 281
-113 369 -50 32 -64 37 -134 41 -62 3 -84 1 -102 -12 -13 -9 -31 -16 -40 -16
-24 0 -111 -81 -134 -124 l-20 -36 -81 0 c-96 0 -102 5 -128 99 -39 147 -184
398 -308 536 -30 33 -57 68 -61 78 -10 27 14 65 88 139 l67 66 79 0 c85 1 99
6 174 62 34 25 59 55 79 93 26 52 28 64 25 145 -4 79 -7 94 -34 133 -85 124
-184 166 -316 134 -58 -15 -79 -26 -124 -67 -31 -28 -64 -70 -76 -96 -22 -49
-30 -142 -17 -197 7 -28 1 -37 -80 -122 -80 -84 -112 -109 -112 -84 0 11 -115
77 -217 126 -129 62 -216 92 -378 131 l-155 37 -6 33 c-9 48 4 171 22 205 9
18 10 29 4 29 -6 0 15 26 46 58 94 95 122 188 89 307 -37 137 -186 232 -322
205z m527 -4050 c-14 -4 -38 -8 -55 -9 -23 0 -26 2 -15 9 8 5 33 9 55 9 35 -1
37 -2 15 -9z"/>
<path d="M22928 8233 c7 -3 16 -2 19 1 4 3 -2 6 -13 5 -11 0 -14 -3 -6 -6z"/>
<path d="M21705 7970 c3 -5 12 -7 20 -3 21 7 19 13 -6 13 -11 0 -18 -4 -14
-10z"/>
<path d="M14400 7504 c-19 -14 -70 -43 -113 -66 -43 -22 -75 -43 -72 -46 8 -8
166 74 205 108 42 36 29 39 -20 4z"/>
<path d="M22520 6549 c75 -14 323 -22 376 -13 46 8 42 9 -61 15 -165 10 -371
9 -315 -2z"/>
</g>
</svg>
